<svg width="640" height="420" viewBox="0 0 640 420" fill="none" xmlns="http://www.w3.org/2000/svg">
  <rect width="640" height="420" rx="36" fill="#F0E3D4"/>
  <rect x="38" y="38" width="564" height="344" rx="28" fill="#FFFDFC"/>
  <rect x="70" y="74" width="500" height="44" rx="16" fill="#E8DCCF"/>
  <rect x="70" y="144" width="168" height="170" rx="22" fill="#FF6237"/>
  <rect x="258" y="144" width="312" height="76" rx="22" fill="#EEE4DA"/>
  <rect x="258" y="238" width="312" height="76" rx="22" fill="#DED1C1"/>
  <path d="M128 202C128 177.699 147.699 158 172 158C196.301 158 216 177.699 216 202V232H128V202Z" fill="#FFF7F2"/>
  <rect x="146" y="208" width="52" height="82" rx="18" fill="#FFF7F2"/>
  <rect x="288" y="171" width="148" height="14" rx="7" fill="#D1C4B5"/>
  <rect x="288" y="255" width="190" height="14" rx="7" fill="#C6B8A9"/>
  <text x="72" y="338" fill="#1F1B17" font-family="Arial, sans-serif" font-size="30" font-weight="700">Authentication System</text>
  <text x="72" y="366" fill="#6D6358" font-family="Arial, sans-serif" font-size="18">jwt / cookies / redis blocklist</text>
</svg>
